<?xml version="1.0" encoding="utf-8"?>
<!-- Generator: Adobe Illustrator 18.1.1, SVG Export Plug-In . SVG Version: 6.00 Build 0)  -->
<svg version="1.1" id="Layer_1" xmlns="http://www.w3.org/2000/svg" xmlns:xlink="http://www.w3.org/1999/xlink" x="0px" y="0px"
	 viewBox="0 0 130 150" enable-background="new 0 0 130 150" xml:space="preserve">
<g>
	<path fill="#FFFFFF" d="M94.496,40.001c0,0,2.731-6.373,4.552-12.746c1.821-6.373,2.731-16.388,2.731-16.388
		S90.097,22.209,88.123,22.703c0,0-4.553-7.284-7.284-10.926c-2.731-3.641-9.711-10.116-9.711-10.116s-6.98,6.474-9.712,10.116
		c-2.732,3.642-7.283,10.926-7.283,10.926c-1.975-0.494-13.657-11.836-13.657-11.836s0.91,10.014,2.731,16.388
		c1.821,6.373,4.552,12.746,4.552,12.746"/>
	<path fill="#FFFFFF" d="M72.973,42.574h-15.38h-5.897v0.102c-6.595,0.238-11.668,0.898-15.205,1.985
		c-4.527,1.391-8.37,3.953-11.528,7.685c-3.157,3.733-4.737,8.182-4.737,13.35c0,5.522,1.8,10.314,5.4,14.377
		c3.6,4.065,9.176,6.935,16.729,8.613l-18.551,25.772c-4.24,5.92-7.884,9.851-10.932,11.794c-3.048,1.944-7.023,3.18-11.925,3.71
		v2.451h23.984l30.41-42.005c2.253,0.089,4.086,0.132,5.499,0.132c0.574,0,1.193-0.01,1.855-0.033
		c0.62-0.02,1.263-0.051,1.921-0.092v26.03c0,5.124-0.464,8.393-1.391,9.806c-1.635,2.474-4.351,3.71-8.149,3.71h-3.246h-0.133
		v2.451h0.133h38.493h30.94l7.685-24.382l-2.186-0.464c-2.297,5.565-4.594,9.64-6.89,12.225c-2.297,2.584-4.836,4.384-7.619,5.4
		c-2.783,1.016-7.619,1.523-14.51,1.523h-6.559c-5.787,0-9.232-0.22-10.335-0.662c-1.105-0.441-1.922-1.126-2.452-2.054
		c-0.422-0.817-0.716-2.045-0.886-3.68c-0.07-1.128-0.107-2.394-0.107-3.807V89.257h0.093v-41.1l12.663-0.013
		c3.713,0,6.707,0.608,8.984,1.823c2.276,1.216,4.099,3.106,5.47,5.669c0.839,1.591,1.503,4.243,1.989,7.957h2.52l-0.994-21.085
		 M64.616,86.234c0,0-0.005,0-0.008,0v0.048c-0.078,0-0.151,0.001-0.227,0.001c0.032,0,0.062-0.001,0.095-0.001v-0.047
		c-0.722,0.003-1.364,0.013-1.913,0.032c-0.618,0.024-1.126,0.034-1.524,0.034c-8.568,0-15.028-1.855-19.379-5.566
		c-4.35-3.71-6.526-8.435-6.526-14.178c0-5.608,1.756-10.17,5.267-13.681c3.511-3.512,8.16-4.748,13.946-4.748h10.261v9.322
		c0.005,0.335,0.008,0.674,0.008,1.025V86.234z"/>
</g>
<g>
	<path fill="#FFFFFF" d="M5.994,144.328c0,1.197,0.015,2.301,0.078,2.875c0.046,0.373,0.077,0.591,0.466,0.685
		c0.186,0.047,0.482,0.062,0.606,0.062c0.125,0,0.187,0.047,0.187,0.094c0,0.077-0.046,0.124-0.202,0.124
		c-0.793,0-1.71-0.047-1.772-0.047s-0.979,0.047-1.383,0.047c-0.171,0-0.233-0.032-0.233-0.109c0-0.047,0.047-0.109,0.171-0.109
		c0.124,0,0.217,0,0.342-0.015c0.295-0.047,0.342-0.234,0.404-0.762c0.063-0.559,0.063-1.679,0.063-2.845v-5.548
		c-0.513,0-1.337,0-1.958,0.015c-0.995,0.016-1.212,0.171-1.43,0.497c-0.14,0.218-0.202,0.405-0.233,0.482
		c-0.047,0.109-0.078,0.124-0.14,0.124c-0.063,0-0.078-0.062-0.078-0.139c-0.016-0.094,0.218-1.12,0.311-1.539
		c0.047-0.187,0.093-0.249,0.14-0.249c0.109,0,0.404,0.14,0.684,0.171c0.544,0.063,0.979,0.078,0.995,0.078h5.097
		c0.435,0,0.902-0.032,1.119-0.078c0.202-0.046,0.249-0.062,0.295-0.062c0.062,0,0.093,0.078,0.093,0.14
		c0,0.435-0.031,1.46-0.031,1.586c0,0.139-0.062,0.186-0.109,0.186c-0.078,0-0.109-0.062-0.109-0.186c0-0.047,0-0.063-0.016-0.218
		c-0.062-0.623-0.264-0.777-1.834-0.793c-0.59,0-1.073-0.015-1.523-0.015V144.328z"/>
	<path fill="#FFFFFF" d="M19.397,142.339c0.047,0,0.094,0,0.094-0.077v-0.28c0-2.051,0-2.41-0.031-2.828
		c-0.032-0.42-0.094-0.638-0.606-0.731c-0.109-0.015-0.264-0.03-0.389-0.03c-0.109,0-0.187-0.047-0.187-0.109
		c0-0.094,0.078-0.109,0.218-0.109c0.652,0,1.569,0.047,1.632,0.047c0.062,0,0.932-0.047,1.398-0.047
		c0.156,0,0.249,0.015,0.249,0.109c0,0.047-0.046,0.109-0.171,0.109c-0.093,0-0.218,0.015-0.311,0.03
		c-0.42,0.063-0.482,0.311-0.513,0.747c-0.015,0.42-0.015,0.777-0.015,2.828v2.331c0,1.274,0,2.285,0.062,2.845
		c0.047,0.373,0.125,0.683,0.528,0.73c0.202,0.032,0.404,0.047,0.544,0.047c0.124,0,0.202,0.047,0.202,0.109
		c0,0.077-0.078,0.109-0.233,0.109c-0.777,0-1.679-0.047-1.757-0.047c-0.062,0-0.964,0.047-1.383,0.047
		c-0.156,0-0.233-0.032-0.233-0.124c0-0.047,0.046-0.094,0.171-0.094c0.124,0,0.233,0,0.358-0.032
		c0.264-0.046,0.342-0.389,0.389-0.745c0.078-0.559,0.078-1.539,0.078-2.798v-1.383c0-0.062-0.047-0.092-0.094-0.092h-5.642
		c-0.047,0-0.078,0.015-0.078,0.092v1.383c0,1.259,0,2.269,0.078,2.828c0.047,0.343,0.125,0.653,0.528,0.7
		c0.202,0.032,0.435,0.047,0.56,0.047c0.108,0,0.186,0.047,0.186,0.109s-0.062,0.109-0.202,0.109c-0.793,0-1.71-0.047-1.788-0.047
		c-0.046,0-0.995,0.047-1.398,0.047c-0.156,0-0.249-0.032-0.249-0.109c0-0.047,0.031-0.109,0.171-0.109
		c0.124,0,0.249-0.015,0.373-0.047c0.28-0.062,0.342-0.357,0.389-0.7c0.094-0.559,0.078-1.601,0.078-2.875v-2.299
		c0-2.051,0-2.456-0.031-2.875c-0.031-0.405-0.14-0.7-0.59-0.747c-0.14-0.015-0.295-0.03-0.42-0.03
		c-0.109,0-0.171-0.047-0.171-0.094c0-0.094,0.078-0.109,0.233-0.109c0.668,0,1.414,0.047,1.616,0.047
		c0.062,0,0.964-0.047,1.399-0.047c0.155,0,0.233,0.032,0.233,0.109c0,0.062-0.062,0.094-0.155,0.094c-0.094,0-0.14,0-0.311,0.03
		c-0.389,0.062-0.482,0.327-0.513,0.762c-0.016,0.42-0.016,0.762-0.016,2.813v0.28c0,0.077,0.047,0.077,0.094,0.077H19.397z"/>
	<path fill="#FFFFFF" d="M25.558,141.997c0-2.036,0-2.408-0.031-2.828c-0.031-0.435-0.14-0.653-0.59-0.747
		c-0.094-0.015-0.249-0.03-0.373-0.03c-0.109,0-0.202-0.047-0.202-0.094c0-0.092,0.078-0.124,0.233-0.124
		c0.311,0,0.731,0.032,1.601,0.047c0.078,0,2.844,0,3.155-0.015c0.311-0.016,0.482-0.032,0.606-0.078
		c0.094-0.03,0.109-0.047,0.171-0.047c0.031,0,0.062,0.032,0.062,0.109c0,0.094-0.094,0.311-0.125,0.7
		c-0.015,0.264-0.031,0.513-0.046,0.809c0,0.139-0.032,0.233-0.109,0.233c-0.078,0-0.109-0.062-0.109-0.171
		c-0.016-0.234-0.062-0.389-0.109-0.497c-0.094-0.311-0.233-0.42-1.011-0.467c-0.202-0.015-1.741-0.03-1.772-0.03
		c-0.047,0-0.078,0.03-0.078,0.124v3.528c0,0.092,0.016,0.156,0.094,0.156c0.186,0,1.772-0.016,2.098-0.047
		c0.358-0.016,0.59-0.062,0.715-0.233c0.062-0.094,0.108-0.125,0.171-0.125c0.031,0,0.062,0.016,0.062,0.094
		c0,0.077-0.062,0.373-0.109,0.824c-0.047,0.435-0.047,0.745-0.062,0.948c-0.016,0.124-0.047,0.171-0.109,0.171
		c-0.078,0-0.094-0.094-0.094-0.202c0-0.092-0.015-0.248-0.046-0.372c-0.063-0.202-0.156-0.42-0.746-0.467
		c-0.358-0.03-1.617-0.062-1.865-0.062c-0.093,0-0.109,0.047-0.109,0.109v1.135c0,0.481-0.015,1.849,0,2.113
		c0.031,0.575,0.109,0.871,0.435,1.01c0.233,0.109,0.606,0.14,1.135,0.14c0.295,0,0.793,0.015,1.181-0.094
		c0.466-0.14,0.575-0.451,0.699-1.026c0.031-0.154,0.078-0.216,0.14-0.216c0.094,0,0.094,0.139,0.094,0.233
		c0,0.109-0.125,1.087-0.171,1.352c-0.062,0.311-0.171,0.342-0.683,0.342c-1.026,0-1.461-0.03-2.005-0.03
		c-0.544-0.015-1.259-0.047-1.834-0.047c-0.358,0-0.653,0.047-1.026,0.047c-0.14,0-0.218-0.032-0.218-0.109
		c0-0.062,0.062-0.109,0.14-0.109c0.093,0,0.202-0.015,0.311-0.047c0.28-0.062,0.466-0.264,0.497-1.228
		c0.016-0.529,0.031-1.166,0.031-2.348V141.997z"/>
	<path fill="#FFFFFF" d="M39.398,140.925c0-2.425,0-2.86-0.031-3.357c-0.031-0.529-0.156-0.777-0.668-0.886
		c-0.125-0.032-0.389-0.047-0.528-0.047c-0.063,0-0.125-0.03-0.125-0.094c0-0.092,0.078-0.124,0.249-0.124
		c0.7,0,1.679,0.047,1.757,0.047c0.171,0,1.352-0.047,1.834-0.047c0.979,0,2.02,0.094,2.844,0.685
		c0.389,0.28,1.073,1.04,1.073,2.113c0,1.15-0.482,2.299-1.881,3.59c1.274,1.631,2.331,3.014,3.233,3.979
		c0.839,0.886,1.507,1.057,1.896,1.119c0.295,0.047,0.513,0.047,0.606,0.047c0.078,0,0.14,0.047,0.14,0.094
		c0,0.092-0.093,0.124-0.373,0.124h-1.104c-0.87,0-1.259-0.078-1.663-0.295c-0.668-0.358-1.212-1.12-2.098-2.286
		c-0.653-0.854-1.383-1.896-1.694-2.299c-0.063-0.063-0.109-0.094-0.202-0.094l-1.912-0.032c-0.078,0-0.109,0.047-0.109,0.125v0.372
		c0,1.492,0,2.72,0.078,3.373c0.047,0.451,0.14,0.793,0.606,0.855c0.218,0.03,0.559,0.062,0.699,0.062
		c0.094,0,0.125,0.047,0.125,0.094c0,0.077-0.078,0.124-0.249,0.124c-0.855,0-1.834-0.047-1.912-0.047
		c-0.016,0-0.995,0.047-1.461,0.047c-0.171,0-0.249-0.032-0.249-0.124c0-0.047,0.031-0.094,0.124-0.094
		c0.14,0,0.326-0.032,0.466-0.062c0.311-0.062,0.389-0.405,0.451-0.855c0.078-0.653,0.078-1.881,0.078-3.373V140.925z
		 M40.641,142.277c0,0.078,0.031,0.14,0.109,0.187c0.233,0.139,0.948,0.248,1.632,0.248c0.373,0,0.808-0.047,1.166-0.295
		c0.544-0.373,0.948-1.212,0.948-2.394c0-1.943-1.026-3.108-2.689-3.108c-0.466,0-0.886,0.047-1.041,0.094
		c-0.078,0.03-0.125,0.094-0.125,0.186V142.277z"/>
	<path fill="#FFFFFF" d="M49.507,143.147c0-2.067,1.601-5.159,5.44-5.159c3.077,0,5.425,1.834,5.425,4.957
		c0,2.969-2.192,5.394-5.502,5.394C51.061,148.338,49.507,145.51,49.507,143.147z M58.91,143.333c0-3.123-1.927-4.865-4.057-4.865
		c-2.16,0-3.901,1.338-3.901,4.275c0,3.046,1.695,5.066,4.305,5.066C56.299,147.809,58.91,147.282,58.91,143.333z"/>
	<path fill="#FFFFFF" d="M65.274,144.78c0-0.747-0.109-1.026-0.342-1.43c-0.094-0.171-1.897-3.109-2.378-3.778
		c-0.42-0.59-0.576-0.777-0.793-0.948c-0.218-0.156-0.419-0.218-0.73-0.233c-0.094,0-0.171-0.047-0.171-0.124
		c0-0.047,0.062-0.094,0.186-0.094c0.249,0,1.43,0.047,1.462,0.047c0.092,0,0.606-0.047,1.181-0.047
		c0.156,0,0.202,0.047,0.202,0.094c0,0.062-0.047,0.092-0.171,0.124c-0.218,0.047-0.249,0.124-0.249,0.248
		c0,0.156,0.094,0.311,0.202,0.514c0.202,0.389,2.254,3.683,2.487,4.071c0.248-0.543,1.989-3.388,2.207-3.776
		c0.295-0.513,0.357-0.653,0.357-0.824c0-0.202-0.186-0.202-0.357-0.233c-0.124-0.015-0.171-0.062-0.171-0.124
		c0-0.047,0.03-0.094,0.186-0.094c0.373,0,0.7,0.047,0.948,0.047c0.202,0,1.104-0.047,1.368-0.047c0.14,0,0.186,0.047,0.186,0.094
		c0,0.077-0.077,0.124-0.186,0.124c-0.326,0.015-0.559,0.047-0.777,0.202c-0.233,0.154-0.326,0.295-0.575,0.637
		c-0.902,1.244-2.41,3.776-2.642,4.32c-0.187,0.482-0.156,0.824-0.156,1.229v1.134c0,0.109,0,0.683,0.03,1.244
		c0.032,0.372,0.063,0.637,0.544,0.73c0.202,0.047,0.467,0.062,0.576,0.062c0.124,0,0.171,0.047,0.171,0.094
		c0,0.077-0.047,0.124-0.187,0.124c-0.777,0-1.74-0.047-1.787-0.047c-0.03,0-0.963,0.047-1.398,0.047
		c-0.156,0-0.218-0.047-0.218-0.124c0-0.047,0.047-0.094,0.156-0.094c0.124,0,0.263-0.015,0.389-0.047
		c0.264-0.047,0.372-0.373,0.404-0.745c0.047-0.561,0.047-1.12,0.047-1.244V144.78z"/>
	<path fill="#FFFFFF" d="M72.863,144.375c-0.077,0-0.124,0.047-0.156,0.124l-0.683,1.944c-0.156,0.435-0.264,0.854-0.264,1.104
		c0,0.28,0.171,0.404,0.513,0.404c0.047,0,0.062,0,0.109,0c0.14,0,0.187,0.047,0.187,0.109c0,0.077-0.125,0.109-0.234,0.109
		c-0.342,0-1.057-0.047-1.228-0.047c-0.156,0-0.839,0.047-1.492,0.047c-0.171,0-0.248-0.032-0.248-0.109
		c0-0.062,0.062-0.109,0.186-0.109c0.077,0,0.218,0,0.311-0.015c0.668-0.062,0.933-0.576,1.196-1.229l3.109-8.19
		c0.171-0.451,0.218-0.528,0.326-0.528c0.077,0,0.139,0.062,0.31,0.497c0.218,0.513,2.331,5.936,3.155,7.879
		c0.514,1.228,0.964,1.43,1.182,1.508c0.201,0.077,0.419,0.077,0.528,0.077s0.187,0.03,0.187,0.109c0,0.077-0.063,0.109-0.234,0.109
		c-0.154,0-1.321,0-2.361-0.032c-0.296-0.015-0.389-0.03-0.389-0.109c0-0.047,0.046-0.092,0.108-0.109
		c0.063-0.03,0.156-0.109,0.063-0.342l-1.229-3.123c-0.03-0.047-0.062-0.078-0.124-0.078H72.863z M75.505,143.831
		c0.062,0,0.062-0.046,0.047-0.092l-1.229-3.435c-0.077-0.218-0.092-0.218-0.171,0l-1.166,3.435c-0.03,0.062,0,0.092,0.032,0.092
		H75.505z"/>
	<path fill="#FFFFFF" d="M83.033,144.36c0,1.787,0.062,2.689,0.326,2.937c0.248,0.218,0.559,0.311,1.631,0.311
		c0.683,0,1.306,0,1.648-0.435c0.156-0.233,0.264-0.544,0.295-0.777c0.016-0.124,0.047-0.187,0.124-0.187
		c0.063,0,0.094,0.047,0.094,0.202c0,0.156-0.094,1.042-0.186,1.398c-0.094,0.311-0.078,0.389-0.824,0.389
		c-1.057,0-2.222-0.077-3.776-0.077c-0.514,0-0.824,0.047-1.368,0.047c-0.156,0-0.249-0.032-0.249-0.124
		c0-0.047,0.047-0.094,0.171-0.094c0.125,0,0.249,0,0.373-0.032c0.264-0.046,0.358-0.357,0.404-0.73
		c0.094-0.591,0.063-1.663,0.063-2.86v-2.331c0-2.051,0-2.393-0.032-2.813c-0.032-0.435-0.094-0.715-0.621-0.777
		c-0.094-0.015-0.264-0.015-0.389-0.015c-0.109,0-0.171-0.047-0.171-0.109c0-0.077,0.077-0.109,0.233-0.109
		c0.653,0,1.586,0.047,1.616,0.047c0.218,0,1.166-0.047,1.601-0.047c0.156,0,0.202,0.047,0.202,0.109
		c0,0.062-0.078,0.109-0.171,0.109c-0.109,0-0.264,0.015-0.42,0.03c-0.435,0.063-0.529,0.311-0.559,0.762
		c-0.032,0.42-0.015,0.762-0.015,2.813V144.36z"/>
	<path fill="#FFFFFF" d="M96.623,143.691c0,2.284,0.062,3.279,0.342,3.559c0.248,0.249,0.653,0.358,1.865,0.358
		c0.824,0,1.507-0.016,1.881-0.467c0.201-0.248,0.357-0.637,0.404-0.933c0.015-0.124,0.047-0.201,0.139-0.201
		c0.078,0,0.094,0.062,0.094,0.233c0,0.171-0.109,1.104-0.233,1.554c-0.109,0.358-0.156,0.42-0.979,0.42
		c-1.336,0-2.658-0.094-4.165-0.094c-0.482,0-0.948,0.047-1.524,0.047c-0.171,0-0.248-0.032-0.248-0.124
		c0-0.047,0.03-0.094,0.124-0.094c0.14,0,0.326-0.032,0.467-0.062c0.31-0.062,0.389-0.405,0.451-0.855
		c0.077-0.653,0.077-1.881,0.077-3.373v-2.735c0-2.425,0-2.86-0.032-3.357c-0.03-0.529-0.154-0.777-0.668-0.886
		c-0.124-0.032-0.389-0.047-0.528-0.047c-0.062,0-0.124-0.03-0.124-0.094c0-0.092,0.077-0.124,0.248-0.124
		c0.7,0,1.678,0.047,1.757,0.047c0.077,0,1.212-0.047,1.678-0.047c0.171,0,0.249,0.032,0.249,0.124c0,0.063-0.062,0.094-0.124,0.094
		c-0.109,0-0.326,0.015-0.514,0.047c-0.451,0.077-0.575,0.342-0.606,0.886c-0.03,0.497-0.03,0.933-0.03,3.357V143.691z"/>
	<path fill="#FFFFFF" d="M104.166,141.997c0-2.051,0-2.425-0.032-2.844c-0.032-0.42-0.124-0.653-0.451-0.715
		c-0.156-0.032-0.264-0.032-0.358-0.047c-0.109-0.015-0.171-0.047-0.171-0.109c0-0.077,0.062-0.109,0.234-0.109
		c0.481,0,1.367,0.047,1.414,0.047c0.062,0,0.964-0.047,1.398-0.047c0.156,0,0.234,0.032,0.234,0.109
		c0,0.062-0.047,0.094-0.171,0.109c-0.094,0.015-0.172,0.015-0.281,0.03c-0.451,0.063-0.496,0.296-0.528,0.747
		c-0.032,0.42-0.015,0.777-0.015,2.828v2.331c0,1.197-0.016,2.285,0.062,2.845c0.062,0.451,0.124,0.621,0.528,0.715
		c0.202,0.047,0.529,0.062,0.591,0.062c0.14,0.015,0.171,0.047,0.171,0.109s-0.062,0.109-0.218,0.109
		c-0.792,0-1.693-0.047-1.772-0.047c-0.047,0-0.963,0.047-1.398,0.047c-0.14,0-0.249-0.032-0.249-0.109
		c0-0.062,0.062-0.109,0.202-0.109c0.077,0,0.248-0.015,0.373-0.047c0.263-0.062,0.31-0.373,0.357-0.745
		c0.078-0.561,0.078-1.664,0.078-2.83V141.997z"/>
	<path fill="#FFFFFF" d="M110.946,144.375c-0.077,0-0.124,0.047-0.156,0.124l-0.683,1.944c-0.156,0.435-0.264,0.854-0.264,1.104
		c0,0.28,0.171,0.404,0.513,0.404c0.047,0,0.062,0,0.109,0c0.14,0,0.187,0.047,0.187,0.109c0,0.077-0.125,0.109-0.234,0.109
		c-0.342,0-1.057-0.047-1.228-0.047c-0.156,0-0.839,0.047-1.492,0.047c-0.171,0-0.248-0.032-0.248-0.109
		c0-0.062,0.062-0.109,0.186-0.109c0.077,0,0.218,0,0.311-0.015c0.668-0.062,0.933-0.576,1.196-1.229l3.109-8.19
		c0.171-0.451,0.218-0.528,0.325-0.528c0.078,0,0.14,0.062,0.311,0.497c0.218,0.513,2.331,5.936,3.155,7.879
		c0.513,1.228,0.964,1.43,1.182,1.508c0.201,0.077,0.419,0.077,0.528,0.077s0.187,0.03,0.187,0.109c0,0.077-0.063,0.109-0.234,0.109
		c-0.156,0-1.321,0-2.361-0.032c-0.296-0.015-0.389-0.03-0.389-0.109c0-0.047,0.046-0.092,0.109-0.109
		c0.062-0.03,0.154-0.109,0.062-0.342l-1.229-3.123c-0.03-0.047-0.062-0.078-0.124-0.078H110.946z M113.588,143.831
		c0.062,0,0.062-0.046,0.047-0.092l-1.229-3.435c-0.077-0.218-0.092-0.218-0.171,0l-1.166,3.435c-0.03,0.062,0,0.092,0.032,0.092
		H113.588z"/>
	<path fill="#FFFFFF" d="M119.856,141.997c0-2.051,0-2.425-0.032-2.844c-0.03-0.42-0.139-0.653-0.621-0.747
		c-0.094-0.015-0.248-0.03-0.373-0.03c-0.109,0-0.171-0.032-0.171-0.094c0-0.062,0.047-0.109,0.187-0.109
		c0.668,0,1.616,0.047,1.646,0.047c0.14,0,1.197-0.047,1.632-0.047c0.871,0,1.819,0.077,2.549,0.591
		c0.295,0.218,0.933,0.839,0.933,1.896c0,0.854-0.42,1.943-1.648,2.937c1.135,1.398,2.068,2.549,2.86,3.373
		c0.745,0.762,1.212,0.886,1.648,0.948c0.109,0.016,0.435,0.032,0.481,0.032c0.125,0,0.172,0.047,0.172,0.109
		c0,0.077-0.063,0.109-0.281,0.109h-1.087c-0.73,0-1.073-0.047-1.415-0.187c-0.653-0.28-1.119-0.978-1.927-2.02
		c-0.606-0.747-1.228-1.586-1.492-1.912c-0.062-0.062-0.092-0.092-0.186-0.092l-1.601-0.016c-0.062,0-0.077,0.016-0.077,0.078v0.218
		c0,1.243,0,2.378,0.077,2.937c0.047,0.373,0.094,0.683,0.606,0.745c0.156,0.016,0.326,0.032,0.451,0.032
		c0.14,0,0.202,0.047,0.202,0.094c0,0.077-0.062,0.124-0.218,0.124c-0.809,0-1.679-0.047-1.741-0.047
		c-0.248,0-0.933,0.047-1.352,0.047c-0.156,0-0.218-0.032-0.218-0.124c0-0.047,0.094-0.094,0.186-0.094c0.109,0,0.218,0,0.342-0.032
		c0.264-0.046,0.358-0.218,0.405-0.59c0.077-0.559,0.062-1.835,0.062-3.001V141.997z M121.053,143.1
		c0,0.078,0.015,0.156,0.077,0.187c0.202,0.108,0.824,0.201,1.383,0.201c0.326,0,0.715-0.015,1.042-0.233
		c0.466-0.295,0.777-0.979,0.777-1.974c0-1.693-0.901-2.626-2.284-2.626c-0.39,0-0.715,0.03-0.902,0.077
		c-0.047,0.015-0.092,0.062-0.092,0.14V143.1z"/>
</g>
</svg>
